<svg t="1594109273724" class="icon" viewBox="0 0 2503 1024" version="1.1" xmlns="http://www.w3.org/2000/svg" p-id="7101" width="32" height="32"><path d="M563.2 830.577778c11.377778 22.755556 17.066667 45.511111 22.755556 73.955555 5.688889 28.444444 11.377778 56.888889 11.377777 79.644445-17.066667 5.688889-39.822222 11.377778-62.577777 17.066666-22.755556 5.688889-39.822222 5.688889-62.577778 11.377778-22.755556 5.688889-39.822222 5.688889-56.888889 5.688889h-39.822222c-62.577778 0-119.466667-11.377778-164.977778-28.444444-45.511111-17.066667-85.333333-39.822222-119.466667-73.955556-34.133333-34.133333-56.888889-68.266667-68.266666-113.777778-11.377778-45.511111-22.755556-91.022222-22.755556-147.911111 0-85.333333 11.377778-164.977778 39.822222-233.244444C62.577778 347.022222 102.4 284.444444 147.911111 227.555556c45.511111-56.888889 102.4-96.711111 164.977778-130.844445C375.466667 62.577778 449.422222 51.2 523.377778 51.2c39.822222 0 73.955556 0 108.088889 5.688889 34.133333 5.688889 62.577778 17.066667 96.711111 28.444444-5.688889 28.444444-11.377778 51.2-22.755556 73.955556-5.688889 22.755556-17.066667 51.2-34.133333 73.955555-28.444444-11.377778-56.888889-17.066667-79.644445-22.755555-22.755556-5.688889-45.511111-5.688889-62.577777-5.688889-56.888889 0-108.088889 11.377778-147.911111 39.822222-39.822222 28.444444-73.955556 56.888889-102.4 96.711111s-45.511111 85.333333-56.888889 136.533334c-11.377778 51.2-17.066667 102.4-17.066667 153.6 0 68.266667 17.066667 125.155556 56.888889 159.288889 39.822222 34.133333 91.022222 51.2 159.288889 51.2H455.111111c11.377778 0 22.755556 0 34.133333-5.688889 11.377778 0 22.755556-5.688889 34.133334-5.688889 5.688889 11.377778 22.755556 5.688889 39.822222 0zM870.4 79.644444c34.133333-5.688889 68.266667-11.377778 102.4-11.377777 28.444444 0 62.577778-5.688889 96.711111-5.688889 45.511111 0 85.333333 5.688889 130.844445 11.377778 39.822222 5.688889 79.644444 22.755556 113.777777 39.822222 34.133333 17.066667 56.888889 45.511111 79.644445 73.955555 22.755556 28.444444 28.444444 73.955556 28.444444 125.155556 0 39.822222-5.688889 73.955556-17.066666 108.088889-11.377778 34.133333-28.444444 62.577778-45.511112 85.333333-17.066667 22.755556-34.133333 45.511111-56.888888 62.577778-22.755556 17.066667-39.822222 34.133333-56.888889 45.511111l-17.066667 11.377778 136.533333 386.844444c-34.133333 5.688889-73.955556 5.688889-102.4 5.688889s-62.577778 0-96.711111-5.688889L1024 580.266667l22.755556-11.377778c11.377778-5.688889 28.444444-17.066667 51.2-28.444445s39.822222-22.755556 62.577777-45.511111c22.755556-22.755556 34.133333-39.822222 51.2-62.577777 17.066667-22.755556 22.755556-56.888889 22.755556-91.022223 0-22.755556-5.688889-39.822222-11.377778-56.888889-5.688889-17.066667-17.066667-28.444444-34.133333-34.133333-11.377778-11.377778-28.444444-17.066667-45.511111-22.755555-17.066667-5.688889-34.133333-5.688889-51.2-5.688889-17.066667 0-34.133333 0-45.511111 5.688889L910.222222 1012.622222c-17.066667 0-34.133333 5.688889-51.2 5.688889h-91.022222c-17.066667 0-34.133333 0-51.2-5.688889l153.6-932.977778zM1666.844444 79.644444c34.133333-5.688889 68.266667-11.377778 102.4-11.377777h45.511112c11.377778 0 28.444444 5.688889 45.511111 5.688889l108.088889 517.688888 301.511111-517.688888c17.066667-5.688889 28.444444-5.688889 45.511111-5.688889h91.022222c17.066667 0 34.133333 5.688889 45.511111 5.688889L2332.444444 1006.933333c-34.133333 5.688889-68.266667 5.688889-96.711111 5.688889s-56.888889 0-85.333333-5.688889L2235.733333 398.222222 1991.111111 813.511111c-11.377778 0-28.444444 5.688889-39.822222 5.688889h-68.266667c-11.377778 0-22.755556 0-34.133333-5.688889L1763.555556 392.533333l-125.155556 614.4c-28.444444 5.688889-56.888889 5.688889-85.333333 5.688889s-51.2 0-79.644445-5.688889l193.422222-927.288889z" p-id="7102" fill="#000000"></path></svg>
